<svg width="0" height="0" class="hidden">
    <symbol fill="none" xmlns="http://www.w3.org/2000/svg" viewBox="0 0 10 10" id="arrow">
        <path
                d="M8.13805 1.96644C8.01597 1.84436 7.81826 1.84436 7.69618 1.96644L5.00034 4.66227L2.30472 1.96644C2.18263 1.84436 1.98493 1.84436 1.86284 1.96644L0.508677 3.32061C0.386593 3.44269 0.386593 3.6404 0.508677 3.76248L4.77951 8.03332C4.84034 8.09457 4.92034 8.12498 5.00034 8.12498C5.08034 8.12498 5.16034 8.09457 5.22138 8.03352L9.49222 3.76269C9.6143 3.64061 9.6143 3.4429 9.49222 3.32082L8.13805 1.96644Z"
                fill="#323C48"
        />
    </symbol>

    <symbol fill="none" xmlns="http://www.w3.org/2000/svg" viewBox="0 0 16 16" id="sort">
        <g clip-path="url(#clip0_14_755)">
            <path d="M12.1562 15.7737L15.7812 12.1487C15.9218 12.0079 16.0008 11.8169 16.0006 11.6178C16.0004 11.4187 15.9212 11.2278 15.7803 11.0872C15.6394 10.9465 15.4484 10.8676 15.2493 10.8678C15.0502 10.868 14.8593 10.9472 14.7187 11.0881L12.3668 13.4406C12.3664 13.4411 12.3658 13.4413 12.3652 13.4415C12.3646 13.4416 12.364 13.4415 12.3634 13.4413C12.3629 13.441 12.3624 13.4407 12.3621 13.4401C12.3617 13.4396 12.3615 13.439 12.3615 13.4384V0.75C12.3615 0.551088 12.2825 0.360322 12.1418 0.21967C12.0012 0.0790176 11.8104 0 11.6115 0C11.4126 0 11.2218 0.0790176 11.0812 0.21967C10.9405 0.360322 10.8615 0.551088 10.8615 0.75V13.4375C10.8615 13.4381 10.8613 13.4387 10.861 13.4392C10.8606 13.4397 10.8601 13.4401 10.8596 13.4403C10.859 13.4406 10.8584 13.4406 10.8578 13.4405C10.8572 13.4404 10.8566 13.4401 10.8562 13.4397L8.52089 11.1044C8.20839 10.7919 7.69745 10.7947 7.40745 11.1306C7.28395 11.274 7.21921 11.4588 7.22622 11.6479C7.23324 11.837 7.31148 12.0165 7.44526 12.1503L11.0662 15.7737C11.1378 15.8453 11.2227 15.9021 11.3162 15.9409C11.4098 15.9796 11.51 15.9995 11.6112 15.9995C11.7124 15.9995 11.8127 15.9796 11.9062 15.9409C11.9997 15.9021 12.0846 15.8453 12.1562 15.7737Z"
                  fill="#43A0FD"></path>
            <path d="M5.13574 15.2498V2.5623C5.13575 2.56168 5.13594 2.56109 5.13628 2.56058C5.13663 2.56008 5.13711 2.55968 5.13768 2.55945C5.13824 2.55922 5.13887 2.55916 5.13947 2.55927C5.14007 2.55939 5.14062 2.55968 5.14106 2.56011L7.49387 4.91292C7.63452 5.05361 7.82529 5.13267 8.02423 5.13269C8.22316 5.13272 8.41396 5.05373 8.55465 4.91308C8.69534 4.77243 8.77439 4.58165 8.77442 4.38272C8.77445 4.18378 8.69545 3.99299 8.55481 3.8523L4.92981 0.227296C4.85824 0.155664 4.77325 0.098839 4.67971 0.0600687C4.58617 0.0212983 4.48591 0.00134277 4.38465 0.00134277C4.28339 0.00134277 4.18313 0.0212983 4.08959 0.0600687C3.99605 0.098839 3.91106 0.155664 3.83949 0.227296L0.218869 3.84855C0.0850401 3.98235 0.00674031 4.1618 -0.000330356 4.35091C-0.00740102 4.54002 0.0572802 4.72481 0.180744 4.86823C0.470744 5.20417 0.980744 5.20792 1.29449 4.89448L3.63043 2.55917C3.63087 2.55874 3.63142 2.55845 3.63202 2.55834C3.63262 2.55822 3.63324 2.55828 3.63381 2.55851C3.63437 2.55875 3.63486 2.55914 3.6352 2.55965C3.63555 2.56015 3.63574 2.56075 3.63574 2.56136V15.2498C3.63574 15.4487 3.71476 15.6395 3.85541 15.7801C3.99607 15.9208 4.18683 15.9998 4.38574 15.9998C4.58466 15.9998 4.77542 15.9208 4.91607 15.7801C5.05673 15.6395 5.13574 15.4487 5.13574 15.2498Z"
                  fill="black"></path>
        </g>
        <defs>
            <clipPath id="clip0_14_755">
                <rect width="16" height="16" fill="white"></rect>
            </clipPath>
        </defs>
    </symbol>

    <symbol fill="none" xmlns="http://www.w3.org/2000/svg" viewBox="0 0 9 11" id="drop">
        <path d="M4.07397 0L1.19324 2.93361C-0.397745 4.5538 -0.397745 7.18064 1.19324 8.80083C2.78422 10.421 5.36371 10.421 6.95469 8.80083C8.54567 7.18064 8.54567 4.5538 6.95469 2.93361L4.07397 0Z"
              fill="#E6E9ED"></path>
    </symbol>

    <symbol fill="none" xmlns="http://www.w3.org/2000/svg" viewBox="0 0 16 16" id="in-stock">
        <g clip-path="url(#clip0_14_4064)">
            <path fill-rule="evenodd" clip-rule="evenodd"
                  d="M0 8C0 3.5888 3.5888 0 8 0C12.4112 0 16 3.5888 16 8C16 12.4112 12.4112 16 8 16C3.5888 16 0 12.4112 0 8ZM5.07028 7.32219L6.91496 8.93629L10.9801 4L12.8209 5.51592L7.19378 12.3489L3.5 9.1168L5.07028 7.32219Z"
                  fill="#0CBA7A"></path>
        </g>
        <defs>
            <clipPath id="clip0_14_4064">
                <rect width="16" height="16" fill="white"></rect>
            </clipPath>
        </defs>
    </symbol>


    <symbol fill="none" xmlns="http://www.w3.org/2000/svg" viewBox="0 0 12 11" id="add_to_wishes">
        <path d="M5.43328 0.0386507C5.47025 0.0135107 5.51401 3.8517e-05 5.55882 0C5.60364 3.8517e-05 5.6474 0.0135107 5.68436 0.0386507C5.72133 0.0637907 5.74978 0.0994263 5.76597 0.140883L7.13699 3.64742L10.9065 3.83828C10.9514 3.84053 10.9945 3.85622 11.0302 3.88327C11.0659 3.91032 11.0925 3.94746 11.1066 3.98981C11.1206 4.03216 11.1213 4.07773 11.1087 4.12051C11.0961 4.16329 11.0707 4.20129 11.0359 4.22948L8.10065 6.61026L9.06474 10.2228C9.07625 10.2658 9.07439 10.3112 9.05939 10.3532C9.04439 10.3951 9.01696 10.4316 8.9807 10.4577C8.94444 10.4839 8.90104 10.4986 8.85621 10.4999C8.81137 10.5012 8.7672 10.489 8.72948 10.4649L5.55882 8.44603L2.38816 10.4649C2.35045 10.489 2.30627 10.5012 2.26144 10.4999C2.21661 10.4986 2.17321 10.4839 2.13695 10.4577C2.10069 10.4316 2.07326 10.3951 2.05826 10.3532C2.04326 10.3112 2.04139 10.2658 2.0529 10.2228L3.017 6.61026L0.081715 4.22948C0.046916 4.20129 0.0215427 4.16329 0.00893513 4.12051C-0.00367247 4.07773 -0.00292263 4.03216 0.0110875 3.98981C0.0250976 3.94746 0.0517101 3.91032 0.0874192 3.88327C0.123128 3.85622 0.166259 3.84053 0.21113 3.83828L3.98066 3.64742L5.35167 0.140883C5.36787 0.0994263 5.39632 0.0637907 5.43328 0.0386507Z"
              fill="#43A0FD"></path>
    </symbol>


    <symbol fill="none" xmlns="http://www.w3.org/2000/svg" viewBox="0 0 3 18" id="tail">
        <g clip-path="url(#clip0_14_4220)">
            <path fill-rule="evenodd" clip-rule="evenodd"
                  d="M-3.91603e-05 0V18C1.42364 18 2.58142 17.0133 2.58142 15.8V2.2C2.58142 0.9867 1.42364 0 -3.91603e-05 0Z"
                  fill="#FF2741"></path>
        </g>
        <defs>
            <clipPath id="clip0_14_4220">
                <rect width="3" height="18" fill="white"></rect>
            </clipPath>
        </defs>
    </symbol>
    <symbol fill="none" xmlns="http://www.w3.org/2000/svg" viewBox="0 0 9 18" id="triangle">
        <path fill-rule="evenodd" clip-rule="evenodd"
              d="M5.63898 1.32L0.660455 7.0189C-0.220192 8.186 -0.220192 9.814 0.660455 10.9811L5.63898 16.68C6.26075 17.5072 7.25424 18 8.29309 18V0C7.25424 0 6.26075 0.4928 5.63898 1.32ZM7.18676 9C7.18676 9.9108 6.44329 10.65 5.52724 10.65C4.61119 10.65 3.86773 9.9108 3.86773 9C3.86773 8.0892 4.61119 7.35 5.52724 7.35C6.44329 7.35 7.18676 8.0892 7.18676 9Z"
              fill="#FF2741"></path>
    </symbol>

    <symbol fill="none" xmlns="http://www.w3.org/2000/svg" viewBox="0 0 26 26" id="shopping-cart">
        <path d="M1.89585 3.25008C1.78818 3.24856 1.68129 3.26845 1.58138 3.3086C1.48147 3.34875 1.39053 3.40835 1.31385 3.48395C1.23718 3.55955 1.17629 3.64963 1.13474 3.74897C1.09318 3.8483 1.07178 3.9549 1.07178 4.06258C1.07178 4.17026 1.09318 4.27686 1.13474 4.37619C1.17629 4.47553 1.23718 4.56561 1.31385 4.64121C1.39053 4.71681 1.48147 4.77642 1.58138 4.81656C1.68129 4.85671 1.78818 4.8766 1.89585 4.87508H3.38861C3.7829 4.87508 4.11158 5.1475 4.1863 5.53524L4.34816 6.38159L6.09482 15.555C6.41068 17.2101 7.86888 18.4167 9.5543 18.4167H19.6957C21.3811 18.4167 22.84 17.2106 23.1552 15.555L24.9019 6.38159C24.9243 6.26414 24.9205 6.14319 24.8908 6.02737C24.861 5.91155 24.8061 5.80372 24.7299 5.71156C24.6538 5.61941 24.5582 5.5452 24.45 5.49424C24.3418 5.44328 24.2238 5.41682 24.1042 5.41675H5.81764L5.78273 5.23161C5.56437 4.08724 4.55379 3.25008 3.38861 3.25008H1.89585ZM6.12762 7.04175H23.1224L21.5588 15.2514C21.3876 16.1503 20.6114 16.7917 19.6957 16.7917H9.5543C8.63895 16.7917 7.86327 16.1503 7.69126 15.2514V15.2503L6.12762 7.04175ZM10.8333 19.5001C10.4024 19.5001 9.98905 19.6713 9.6843 19.976C9.37955 20.2808 9.20835 20.6941 9.20835 21.1251C9.20835 21.5561 9.37955 21.9694 9.6843 22.2741C9.98905 22.5789 10.4024 22.7501 10.8333 22.7501C11.2643 22.7501 11.6777 22.5789 11.9824 22.2741C12.2871 21.9694 12.4583 21.5561 12.4583 21.1251C12.4583 20.6941 12.2871 20.2808 11.9824 19.976C11.6777 19.6713 11.2643 19.5001 10.8333 19.5001ZM18.4167 19.5001C17.9857 19.5001 17.5724 19.6713 17.2676 19.976C16.9629 20.2808 16.7917 20.6941 16.7917 21.1251C16.7917 21.5561 16.9629 21.9694 17.2676 22.2741C17.5724 22.5789 17.9857 22.7501 18.4167 22.7501C18.8477 22.7501 19.261 22.5789 19.5657 22.2741C19.8705 21.9694 20.0417 21.5561 20.0417 21.1251C20.0417 20.6941 19.8705 20.2808 19.5657 19.976C19.261 19.6713 18.8477 19.5001 18.4167 19.5001Z"
              fill="#182A42"></path>
    </symbol>

    <symbol fill="none" xmlns="http://www.w3.org/2000/svg" viewBox="0 0 22 22" id="search">
        <g clip-path="url(#clip0_14_785)">
            <path d="M9.68565 1.26477C5.27582 1.26477 1.70911 4.74973 1.70911 9.05847C1.70911 13.3672 5.27582 16.8522 9.68565 16.8522C11.2601 16.8522 12.7172 16.4009 13.9525 15.6344L19.715 21.2648L21.7091 19.3163L16.02 13.7719C17.0427 12.461 17.6622 10.8368 17.6622 9.05847C17.6622 4.74973 14.0955 1.26477 9.68565 1.26477ZM9.68565 3.09858C13.0636 3.09858 15.7854 5.75797 15.7854 9.05847C15.7854 12.359 13.0636 15.0184 9.68565 15.0184C6.30771 15.0184 3.58594 12.359 3.58594 9.05847C3.58594 5.75797 6.30771 3.09858 9.68565 3.09858Z"
                  fill="#182A42"></path>
        </g>
        <defs>
            <clipPath id="clip0_14_785">
                <rect width="21.3641" height="21.0795" fill="white"></rect>
            </clipPath>
        </defs>
    </symbol>

    <symbol fill="none" xmlns="http://www.w3.org/2000/svg" viewBox="0 0 24 12" id="arrow-left">
        <path d="M6.00606 0C6.20487 5.2258e-05 6.39916 0.0593114 6.56407 0.170201C6.72899 0.281091 6.85703 0.438572 6.93185 0.622512C7.00666 0.806452 7.02484 1.00849 6.98406 1.2028C6.94328 1.39711 6.84539 1.57487 6.70292 1.71333L3.41187 4.99966H22.9864C23.1188 4.99779 23.2503 5.02222 23.3732 5.07153C23.4961 5.12085 23.6079 5.19406 23.7022 5.28692C23.7965 5.37977 23.8714 5.49042 23.9226 5.61243C23.9737 5.73444 24 5.86538 24 5.99764C24 6.1299 23.9737 6.26084 23.9226 6.38285C23.8714 6.50486 23.7965 6.61551 23.7022 6.70836C23.6079 6.80122 23.4961 6.87443 23.3732 6.92375C23.2503 6.97306 23.1188 6.99749 22.9864 6.99562H3.41187L6.70292 10.2819C6.79883 10.3739 6.87541 10.4841 6.92817 10.6059C6.98092 10.7278 7.00879 10.859 7.01015 10.9918C7.0115 11.1245 6.98631 11.2562 6.93605 11.3792C6.88579 11.5021 6.81147 11.6138 6.71745 11.7077C6.62342 11.8016 6.51158 11.8758 6.38848 11.926C6.26537 11.9761 6.13347 12.0013 6.00051 11.9999C5.86755 11.9986 5.73619 11.9708 5.61413 11.9181C5.49207 11.8654 5.38177 11.7889 5.28968 11.6932L0.292605 6.70325C0.10525 6.51608 5.90693e-07 6.26228 5.90693e-07 5.99764C5.90693e-07 5.733 0.10525 5.4792 0.292605 5.29204L5.28968 0.302124C5.38282 0.206522 5.49419 0.130531 5.61724 0.0786393C5.74028 0.0267475 5.87249 7.74813e-06 6.00606 0Z"
              fill="#182A42"></path>
    </symbol>


    <symbol fill="none" xmlns="http://www.w3.org/2000/svg" viewBox="0 0 24 13" id="arrow-right">
        <path d="M17.9902 0C17.7913 5.23636e-05 17.5969 0.0594313 17.4319 0.170545C17.2668 0.281659 17.1387 0.439458 17.0639 0.62377C16.989 0.808082 16.9708 1.01053 17.0116 1.20523C17.0524 1.39994 17.1504 1.57805 17.2929 1.7168L20.5859 5.00977H0.99996C0.867448 5.00789 0.735885 5.03237 0.612917 5.08179C0.489949 5.1312 0.378028 5.20456 0.283658 5.29761C0.189289 5.39065 0.114352 5.50152 0.0632047 5.62378C0.012057 5.74604 -0.0142822 5.87724 -0.0142822 6.00977C-0.0142822 6.14229 0.012057 6.27349 0.0632047 6.39575C0.114352 6.51801 0.189289 6.62888 0.283658 6.72193C0.378028 6.81497 0.489949 6.88833 0.612917 6.93775C0.735885 6.98716 0.867448 7.01164 0.99996 7.00977H20.5859L17.2929 10.3027C17.197 10.3949 17.1203 10.5052 17.0675 10.6274C17.0148 10.7495 16.9869 10.8809 16.9855 11.014C16.9842 11.147 17.0094 11.279 17.0597 11.4022C17.1099 11.5254 17.1843 11.6373 17.2784 11.7313C17.3725 11.8254 17.4844 11.8998 17.6076 11.9501C17.7307 12.0004 17.8627 12.0256 17.9957 12.0242C18.1288 12.0229 18.2602 11.995 18.3823 11.9422C18.5045 11.8894 18.6148 11.8128 18.707 11.7168L23.707 6.7168C23.8945 6.52925 23.9998 6.27494 23.9998 6.00977C23.9998 5.74459 23.8945 5.49028 23.707 5.30273L18.707 0.302734C18.6138 0.20694 18.5024 0.130795 18.3792 0.0787983C18.2561 0.0268015 18.1238 7.76379e-06 17.9902 0Z"
              fill="#182A42"></path>
    </symbol>

    <symbol fill="none" xmlns="http://www.w3.org/2000/svg" viewBox="0 0 62 34" id="apple-pay">
        <path d="M15.8276 10.4753C16.3712 9.80899 16.74 8.91428 16.6428 8C15.8471 8.03878 14.8761 8.5145 14.3139 9.18137C13.8092 9.75244 13.3624 10.6846 13.4789 11.5606C14.3721 11.6365 15.2645 11.123 15.8276 10.4753Z"
              fill="black"></path>
        <path d="M16.6321 11.7315C15.335 11.6558 14.2321 12.4531 13.6126 12.4531C12.9928 12.4531 12.0442 11.7697 11.0182 11.7881C9.68287 11.8073 8.44379 12.5473 7.76614 13.7243C6.37234 16.0788 7.39832 19.5713 8.75372 21.4889C9.41193 22.4376 10.2052 23.4822 11.2504 23.4447C12.238 23.4067 12.6251 22.8179 13.8255 22.8179C15.0251 22.8179 15.3738 23.4447 16.4192 23.4257C17.5033 23.4067 18.1811 22.4765 18.8393 21.5269C19.5944 20.4454 19.9035 19.4012 19.9229 19.3439C19.9035 19.3249 17.8324 18.5462 17.8132 16.2113C17.7937 14.2562 19.4392 13.3263 19.5167 13.2686C18.5874 11.9216 17.1355 11.7697 16.6321 11.7315Z"
              fill="black"></path>
        <path d="M27.9266 9.0857C30.7459 9.0857 32.7091 10.9904 32.7091 13.7636C32.7091 16.5466 30.7055 18.4612 27.8559 18.4612H24.7343V23.3266H22.479V9.08569L27.9266 9.0857ZM24.7343 16.6058H27.3221C29.2857 16.6058 30.4033 15.5697 30.4033 13.7735C30.4033 11.9774 29.2857 10.951 27.3322 10.951H24.7343V16.6058Z"
              fill="black"></path>
        <path d="M33.2988 20.3756C33.2988 18.5596 34.7186 17.4445 37.2361 17.3063L40.1359 17.1386V16.3393C40.1359 15.1845 39.3403 14.4937 38.0115 14.4937C36.7525 14.4937 35.9671 15.0857 35.776 16.0136H33.7218C33.8427 14.1383 35.4737 12.7567 38.0919 12.7567C40.6595 12.7567 42.3007 14.089 42.3007 16.1714V23.3263H40.2163V21.619H40.1662C39.552 22.7737 38.2127 23.5039 36.8232 23.5039C34.7489 23.5039 33.2988 22.2407 33.2988 20.3756ZM40.1359 19.4381V18.619L37.5278 18.7768C36.2289 18.8657 35.4939 19.4282 35.4939 20.3164C35.4939 21.2242 36.2592 21.8164 37.4272 21.8164C38.9476 21.8164 40.1359 20.79 40.1359 19.4381Z"
              fill="black"></path>
        <path d="M44.2677 27.1461V25.4189C44.4285 25.4583 44.791 25.4583 44.9724 25.4583C45.9792 25.4583 46.523 25.0439 46.8552 23.9781C46.8552 23.9583 47.0467 23.3465 47.0467 23.3366L43.2205 12.9446H45.5764L48.2551 21.3925H48.2951L50.9738 12.9446H53.2696L49.302 23.8694C48.3961 26.3861 47.3489 27.1954 45.1538 27.1954C44.9724 27.1954 44.4285 27.1756 44.2677 27.1461Z"
              fill="black"></path>
    </symbol>
    <symbol fill="none" xmlns="http://www.w3.org/2000/svg" viewBox="0 0 40 40" id="footer-icon">
        <rect width="40" height="40" rx="12" fill="url(#paint0_linear_14_829)"></rect>
        <path d="M26.7871 27.3576L25.0168 29.2194C24.0391 30.2477 24.0391 31.9148 25.0168 32.9431C25.9945 33.9714 27.5797 33.9714 28.5575 32.9431C29.5352 31.9148 29.5352 30.2477 28.5575 29.2194L26.7871 27.3576Z"
              fill="#43A0FD"></path>
        <path fill-rule="evenodd" clip-rule="evenodd"
              d="M9.00235 18.1066C8.88057 12.5844 13.5081 7.88466 19.4753 8.00216C25.5642 8.00216 29.9482 12.4669 29.7046 18.1066C29.7046 21.0849 28.4833 23.8275 26.3069 25.692C24.8751 23.9728 24.4694 22.0063 24.8894 19.7278C25.0163 19.2245 25.0771 18.6875 25.0771 18.1066C25.0771 16.4617 24.5899 15.1693 23.4939 13.9943C22.3979 12.9369 21.0584 12.3494 19.4753 12.3494C17.8921 12.3494 16.5526 12.8194 15.4566 13.9943C14.3606 15.1693 13.8735 16.4617 13.8735 18.1066C13.8735 19.7515 14.3606 21.0439 15.4566 22.2189C16.5526 23.2763 17.7704 23.8638 19.4753 23.8638L19.5162 23.8639C19.5432 23.8641 19.5701 23.8642 19.597 23.8638C21.9108 23.8638 23.2504 24.5687 24.3464 25.5087C24.5062 25.6286 24.6558 25.7536 24.7983 25.8818C24.9913 26.0552 25.1715 26.2345 25.3474 26.4152C25.142 26.5508 24.93 26.6796 24.7117 26.8011C23.5856 27.4697 22.3363 27.9005 21.0075 28.0935C20.4683 28.1719 19.916 28.211 19.3535 28.211C17.405 28.211 15.5784 27.7411 13.9952 26.8011C10.829 25.0387 9.00235 21.7489 9.00235 18.1066Z"
              fill="white"></path>
        <defs>
            <linearGradient id="paint0_linear_14_829" x1="0" y1="20" x2="40" y2="20" gradientUnits="userSpaceOnUse">
                <stop stop-color="#003181"></stop>
                <stop offset="1" stop-color="#2288ED"></stop>
            </linearGradient>
        </defs>
    </symbol>
    <symbol fill="none" xmlns="http://www.w3.org/2000/svg" viewBox="0 0 64 34" id="google-pay">
        <path d="M30.6948 18.3602V23.9744H28.8948V10.0898H33.5748C34.7148 10.0898 35.7948 10.5124 36.6348 11.2972C37.4748 12.0216 37.8948 13.1082 37.8948 14.2552C37.8948 15.4022 37.4748 16.4284 36.6348 17.2132C35.7948 17.998 34.7748 18.4206 33.5748 18.4206L30.6948 18.3602ZM30.6948 11.7801V16.6095H33.6948C34.3548 16.6095 35.0148 16.3681 35.4348 15.8851C36.3948 14.9796 36.3948 13.4704 35.4948 12.5649L35.4348 12.5045C34.9548 12.0216 34.3548 11.7198 33.6948 11.7801H30.6948Z"
              fill="#5F6368"></path>
        <path d="M42.0348 14.1948C43.3548 14.1948 44.3748 14.557 45.1548 15.2814C45.9348 16.0058 46.2948 16.9717 46.2948 18.1791V23.9744H44.6148V22.6463H44.5548C43.8348 23.7329 42.8148 24.2762 41.6148 24.2762C40.5948 24.2762 39.6948 23.9744 38.9748 23.3707C38.3148 22.767 37.8948 21.9219 37.8948 21.0163C37.8948 20.0505 38.2548 19.2657 38.9748 18.662C39.6948 18.0583 40.7148 17.8169 41.9148 17.8169C42.9948 17.8169 43.8348 17.998 44.4948 18.4205V17.998C44.4948 17.3943 44.2548 16.7906 43.7748 16.4284C43.2948 16.0058 42.6948 15.7644 42.0348 15.7644C41.0148 15.7644 40.2348 16.187 39.6948 17.0321L38.1348 16.0662C39.0948 14.7985 40.3548 14.1948 42.0348 14.1948ZM39.7548 21.0767C39.7548 21.5597 39.9948 21.9822 40.3548 22.2237C40.7748 22.5255 41.2548 22.7066 41.7348 22.7066C42.4548 22.7066 43.1748 22.4048 43.7148 21.8615C44.3148 21.3182 44.6148 20.6541 44.6148 19.9297C44.0748 19.5072 43.2948 19.2657 42.2748 19.2657C41.5548 19.2657 40.9548 19.4468 40.4748 19.809C39.9948 20.1108 39.7548 20.5334 39.7548 21.0767Z"
              fill="#5F6368"></path>
        <path d="M56.015 14.4966L50.075 28.2H48.275L50.495 23.431L46.595 14.5569H48.515L51.335 21.3785H51.395L54.155 14.5569H56.015V14.4966Z"
              fill="#5F6368"></path>
        <path d="M23.5548 17.1529C23.5548 16.6096 23.4948 16.0663 23.4348 15.5229H15.9348V18.6017H20.1948C20.0148 19.5676 19.4748 20.4731 18.6348 21.0164V23.0085H21.2148C22.7148 21.6201 23.5548 19.5676 23.5548 17.1529Z"
              fill="#4285F4"></path>
        <path d="M15.935 24.9403C18.095 24.9403 19.895 24.2159 21.215 23.0085L18.635 21.0164C17.915 21.4993 17.015 21.8012 15.935 21.8012C13.895 21.8012 12.095 20.4127 11.495 18.481H8.85498V20.5335C10.235 23.25 12.935 24.9403 15.935 24.9403Z"
              fill="#34A853"></path>
        <path d="M11.495 18.4808C11.135 17.515 11.135 16.4284 11.495 15.4021V13.3496H8.855C7.715 15.5832 7.715 18.2394 8.855 20.5333L11.495 18.4808Z"
              fill="#FBBC04"></path>
        <path d="M15.9348 12.1424C17.0748 12.1424 18.1548 12.5649 18.9948 13.3497L21.2748 11.0557C19.8348 9.72766 17.9148 8.94288 15.9948 9.00325C12.9948 9.00325 10.2348 10.6935 8.91479 13.4101L11.5548 15.4626C12.0948 13.5308 13.8948 12.1424 15.9348 12.1424Z"
              fill="#EA4335"></path>
    </symbol>
    <symbol fill="none" xmlns="http://www.w3.org/2000/svg" viewBox="0 0 39 29" id="made-in-ukraine">
        <path d="M5.87148 16.1443H3.05176e-05V6.12209e-05H5.87148V16.1443Z" fill="#015EB7"></path>
        <path d="M18.5351 16.1443H12.6636V6.12209e-05H18.5351V16.1443Z" fill="#015EB7"></path>
        <path d="M10.7354 16.1443H7.79962V6.12209e-05H10.7354V16.1443Z" fill="#015EB7"></path>
        <path d="M26.3343 16.1443H20.4628V6.12209e-05H26.3343V16.1443Z" fill="#FDD602"></path>
        <path d="M38.9979 16.1443H33.1264V6.12209e-05H38.9979V16.1443Z" fill="#FDD602"></path>
        <path d="M31.1981 16.1443H28.2624V6.12209e-05H31.1981V16.1443Z" fill="#FDD602"></path>
        <path d="M0.686234 21.4683C0.697243 21.67 0.752485 21.8408 0.851174 21.9806C0.950518 22.1208 1.10314 22.229 1.31028 22.3053C1.51742 22.382 1.7895 22.4202 2.12652 22.4202C2.61741 22.4202 2.96551 22.3616 3.17068 22.2438C3.37593 22.1264 3.47848 21.9687 3.47848 21.7707C3.47848 21.6325 3.44539 21.5236 3.37979 21.443C3.31354 21.363 3.19021 21.2995 3.00837 21.2528C2.82717 21.2061 2.56807 21.1827 2.23105 21.1827H1.44468V20.5947H2.23105C2.52783 20.5947 2.7564 20.5733 2.91813 20.5303C3.07914 20.4875 3.19021 20.425 3.25057 20.3427C3.31099 20.2608 3.3408 20.1541 3.3408 20.0235C3.3408 19.8222 3.24473 19.6616 3.05253 19.5421C2.86033 19.4227 2.54212 19.3628 2.09926 19.3628C1.78039 19.3628 1.52194 19.4003 1.32391 19.4747C1.12653 19.5494 0.9804 19.6567 0.886888 19.7968C0.793376 19.9367 0.737544 20.1094 0.719327 20.3147H0.0323071C0.0583226 19.8406 0.239448 19.4664 0.576471 19.192C0.913493 18.9176 1.42325 18.7804 2.10444 18.7804C2.54081 18.7804 2.90122 18.8347 3.18694 18.943C3.4733 19.0512 3.68307 19.193 3.81681 19.3684C3.94997 19.5438 4.01681 19.7379 4.01681 19.9508C4.01681 20.216 3.93372 20.424 3.76681 20.5753C3.60056 20.7263 3.38694 20.8263 3.12652 20.8747V20.8859C3.42003 20.9382 3.6655 21.0399 3.86295 21.1912C4.06098 21.3423 4.16032 21.5634 4.16032 21.8546C4.16032 22.0675 4.09152 22.26 3.95384 22.4314C3.81681 22.6031 3.5967 22.7413 3.29408 22.846C2.99211 22.9502 2.60123 23.0026 2.12069 23.0026C1.41028 23.0026 0.884267 22.8673 0.543378 22.5966C0.203145 22.3261 0.0251643 21.95 0.0102234 21.4683H0.686234Z"
              fill="black"></path>
        <path d="M7.49592 20.6846C7.78943 20.6846 8.00371 20.6307 8.13877 20.5224C8.27448 20.4141 8.3427 20.2592 8.3427 20.0575C8.3427 19.8561 8.27448 19.7011 8.13877 19.5929C8.00371 19.4847 7.78943 19.4304 7.49592 19.4304H5.96277V20.6846H7.49592ZM7.51282 18.8479C7.84591 18.8479 8.12448 18.8976 8.34788 18.9964C8.57127 19.0954 8.73883 19.2352 8.85115 19.4166C8.96281 19.5975 9.01871 19.811 9.01871 20.0575C9.01871 20.3003 8.96281 20.5112 8.85115 20.6902C8.73883 20.8695 8.57127 21.0104 8.34788 21.113C8.12448 21.216 7.84591 21.267 7.51282 21.267H5.96277V22.9358H5.30301V18.8479H7.51282Z"
              fill="black"></path>
        <path d="M11.8868 22.4034C12.3706 22.4034 12.7433 22.2774 13.0057 22.0254C13.2674 21.7737 13.3986 21.4199 13.3986 20.9643V20.8188C13.3986 20.3594 13.2687 20.0051 13.0083 19.7547C12.7479 19.5047 12.3745 19.3796 11.8868 19.3796C11.3927 19.3796 11.0141 19.5056 10.7524 19.7577C10.4901 20.0097 10.3595 20.3634 10.3595 20.8188V20.9643C10.3595 21.4199 10.4901 21.7737 10.7524 22.0254C11.0141 22.2774 11.3927 22.4034 11.8868 22.4034ZM11.8764 23.0026C11.418 23.0026 11.0245 22.9187 10.6946 22.7505C10.3647 22.5827 10.1135 22.3475 9.94137 22.0451C9.76929 21.7427 9.68292 21.3864 9.68292 20.9754V20.8076C9.68292 20.397 9.76929 20.0403 9.94137 19.7379C10.1135 19.4356 10.3647 19.2003 10.6946 19.0325C11.0245 18.8643 11.418 18.7804 11.8764 18.7804C12.3414 18.7804 12.7388 18.8643 13.0687 19.0325C13.3986 19.2003 13.6492 19.4356 13.8219 19.7379C13.994 20.0403 14.0797 20.397 14.0797 20.8076V20.9754C14.0797 21.3864 13.994 21.7427 13.8219 22.0451C13.6492 22.3475 13.3986 22.5827 13.0687 22.7505C12.7388 22.9187 12.3414 23.0026 11.8764 23.0026Z"
              fill="black"></path>
        <path d="M17.3336 22.359C17.6343 22.359 17.8512 22.3057 17.985 22.1994C18.1187 22.0932 18.1856 21.9428 18.1856 21.7487C18.1856 21.5545 18.1187 21.4052 17.985 21.3005C17.8512 21.1962 17.6343 21.1439 17.3336 21.1439H15.7836V22.359H17.3336ZM17.3506 20.5783C17.8486 20.5783 18.2233 20.6846 18.4739 20.8975C18.7252 21.1104 18.8505 21.3959 18.8505 21.7543C18.8505 22.1165 18.7252 22.4038 18.4739 22.6167C18.2233 22.8296 17.8486 22.9358 17.3506 22.9358H15.1297V18.8479H18.5376V19.4303H15.7836V20.5783H17.3506Z"
              fill="black"></path>
        <path d="M20.4516 18.8475H23.9192V22.9354H23.2543V19.4411H21.0893L21.012 21.2161C21.001 21.6495 20.9471 21.9957 20.8496 22.2549C20.7529 22.5145 20.6224 22.7001 20.4594 22.8123C20.2964 22.9242 20.0977 22.9801 19.8633 22.9801C19.7977 22.9801 19.7354 22.9755 19.6763 22.9663C19.6178 22.9567 19.5685 22.9465 19.5282 22.9354V22.3306C19.5354 22.3306 19.5438 22.3316 19.5529 22.3333C19.562 22.3352 19.5704 22.3362 19.5776 22.3362C19.6581 22.3398 19.7224 22.3418 19.7698 22.3418C19.8983 22.3418 20.0029 22.3102 20.0834 22.2467C20.1639 22.1832 20.2282 22.0648 20.2757 21.891C20.323 21.7173 20.3523 21.4718 20.3633 21.1546L20.4516 18.8475Z"
              fill="black"></path>
        <path d="M25.1604 22.9358V18.8479H28.4748V19.4303H25.8202V20.5783H28.2436V21.1495H25.8202V22.3479H28.5793V22.9358H25.1604Z"
              fill="black"></path>
        <path d="M32.8816 18.8479H33.5518V22.9358H32.8816V21.1886H30.2323V22.9358H29.5673V18.8479H30.2323V20.5951H32.8816V18.8479Z"
              fill="black"></path>
        <path d="M36.8043 22.4034C37.288 22.4034 37.6608 22.2774 37.9232 22.0254C38.1848 21.7737 38.316 21.4199 38.316 20.9643V20.8188C38.316 20.3594 38.1861 20.0051 37.9257 19.7547C37.6654 19.5047 37.292 19.3796 36.8043 19.3796C36.3101 19.3796 35.9316 19.5056 35.6698 19.7577C35.4075 20.0097 35.277 20.3634 35.277 20.8188V20.9643C35.277 21.4199 35.4075 21.7737 35.6698 22.0254C35.9316 22.2774 36.3101 22.4034 36.8043 22.4034ZM36.7939 23.0026C36.3354 23.0026 35.9419 22.9187 35.612 22.7505C35.2821 22.5827 35.0309 22.3475 34.8588 22.0451C34.6867 21.7427 34.6004 21.3864 34.6004 20.9754V20.8076C34.6004 20.397 34.6867 20.0403 34.8588 19.7379C35.0309 19.4356 35.2821 19.2003 35.612 19.0325C35.9419 18.8643 36.3354 18.7804 36.7939 18.7804C37.2589 18.7804 37.6562 18.8643 37.9861 19.0325C38.316 19.2003 38.5667 19.4356 38.7394 19.7379C38.9115 20.0403 38.9972 20.397 38.9972 20.8076V20.9754C38.9972 21.3864 38.9115 21.7427 38.7394 22.0451C38.5667 22.3475 38.316 22.5827 37.9861 22.7505C37.6562 22.9187 37.2589 23.0026 36.7939 23.0026Z"
              fill="black"></path>
        <path d="M4.96298 28.3614C5.29286 28.3614 5.52726 28.3101 5.66625 28.2074C5.80583 28.1048 5.87535 27.9547 5.87535 27.7567C5.87535 27.5701 5.80583 27.4234 5.66625 27.3171C5.52726 27.2108 5.30714 27.1575 5.00714 27.1575H3.40191V28.3614H4.96298ZM4.96298 25.416H3.40191V26.6198H5.00714C5.25976 26.6198 5.44869 26.5669 5.57339 26.4603C5.69744 26.354 5.75976 26.2076 5.75976 26.0207C5.75976 25.8266 5.69678 25.6772 5.57011 25.5729C5.44417 25.4683 5.24155 25.416 4.96298 25.416ZM5.58374 26.8887C5.83702 26.9374 6.05976 27.0427 6.25196 27.2052C6.44416 27.3675 6.54029 27.5849 6.54029 27.8573C6.54029 28.0591 6.4857 28.242 6.37535 28.4062C6.26559 28.5707 6.09416 28.6994 5.86172 28.7928C5.62857 28.8859 5.33702 28.9327 4.98506 28.9327H2.74799V24.8448H4.98506C5.29607 24.8448 5.56101 24.8915 5.77922 24.9849C5.99744 25.078 6.1591 25.206 6.26559 25.3683C6.37207 25.5308 6.4247 25.7147 6.4247 25.92C6.4247 26.0954 6.3838 26.2504 6.3013 26.3846C6.21886 26.5192 6.11362 26.6274 5.98505 26.7097C5.85714 26.7916 5.72339 26.8475 5.58374 26.8775V26.8887Z"
              fill="black"></path>
        <path d="M12.6413 24.8449H13.3887L11.6796 27.9082C11.5329 28.1767 11.3945 28.3879 11.2646 28.5409C11.1348 28.6939 10.988 28.8088 10.8251 28.8851C10.662 28.9618 10.4614 28.9999 10.2231 28.9999C10.0542 28.9999 9.8893 28.9776 9.72829 28.9328V28.3449C9.88609 28.3672 10.023 28.3784 10.1406 28.3784C10.2653 28.3784 10.3685 28.3626 10.451 28.3307C10.5335 28.2991 10.6069 28.2488 10.6711 28.1797C10.7348 28.1106 10.8036 28.0108 10.877 27.8799L9.1568 24.8449H9.94257L11.2945 27.3258L12.6413 24.8449Z"
              fill="black"></path>
        <path d="M17.4613 28.9327L15.8561 26.8775L14.9275 27.7343V28.9327H14.2677V24.8448H14.9275V26.9614L17.2301 24.8448H18.1593L16.3781 26.4745L18.3022 28.9327H17.4613Z"
              fill="black"></path>
        <path d="M21.4003 26.6814C21.6938 26.6814 21.9081 26.6275 22.0432 26.5193C22.1789 26.4109 22.2471 26.256 22.2471 26.0543C22.2471 25.8529 22.1789 25.698 22.0432 25.5897C21.9081 25.4815 21.6938 25.4271 21.4003 25.4271H19.8672V26.6814H21.4003ZM21.4172 24.8448C21.7503 24.8448 22.0289 24.8945 22.2523 24.9932C22.4757 25.0922 22.6432 25.2321 22.7555 25.4133C22.8672 25.5943 22.923 25.8078 22.923 26.0543C22.923 26.2971 22.8672 26.508 22.7555 26.687C22.6432 26.8663 22.4757 27.0071 22.2523 27.1099C22.0289 27.2128 21.7503 27.2638 21.4172 27.2638H19.8672V28.9327H19.2074V24.8448H21.4172Z"
              fill="black"></path>
        <path d="M25.2547 25.5841L24.5072 27.348H26.0131L25.2547 25.5841ZM27.4151 28.9327H26.7001L26.2495 27.908H24.2709L23.826 28.9327H23.1169L24.9306 24.8448H25.5794L27.4151 28.9327Z"
              fill="black"></path>
        <path d="M29.6654 24.2877C29.5901 24.3604 29.4927 24.3969 29.3712 24.3969C29.2433 24.3969 29.1427 24.3604 29.0693 24.2877C28.9959 24.215 28.9596 24.1189 28.9596 23.9991C28.9596 23.8837 28.9959 23.7902 29.0693 23.7192C29.1427 23.6484 29.2433 23.6128 29.3712 23.6128C29.4959 23.6128 29.5953 23.6484 29.668 23.7192C29.7413 23.7902 29.7784 23.8837 29.7784 23.9991C29.7784 24.1189 29.7407 24.215 29.6654 24.2877ZM29.0913 24.8448H28.4264V28.9327H29.0913V24.8448ZM28.4537 24.2877C28.3803 24.3604 28.2816 24.3969 28.1569 24.3969C28.0322 24.3969 27.9336 24.3604 27.8602 24.2877C27.7868 24.215 27.7504 24.1189 27.7504 23.9991C27.7504 23.8837 27.7868 23.7902 27.8602 23.7192C27.9336 23.6484 28.0322 23.6128 28.1569 23.6128C28.2816 23.6128 28.3803 23.6484 28.4537 23.7192C28.5271 23.7902 28.5634 23.8837 28.5634 23.9991C28.5634 24.1189 28.5271 24.215 28.4537 24.2877Z"
              fill="black"></path>
        <path d="M33.6698 24.8448H34.3399V28.9327H33.6698V27.1855H31.0204V28.9327H30.3554V24.8448H31.0204V26.5919H33.6698V24.8448Z"
              fill="black"></path>
        <path d="M36.2441 28.9327H35.5792V24.8448H36.2441V28.9327Z" fill="black"></path>
    </symbol>
    <symbol fill="none" xmlns="http://www.w3.org/2000/svg" viewBox="0 0 77 34" id="master-card">
        <path d="M11.6259 20.5092C11.2934 20.2977 10.9355 20.1294 10.5607 20.0084C10.1854 19.8886 9.79374 19.8284 9.39987 19.8298C9.15538 19.8276 8.91155 19.8554 8.67381 19.9126C8.47311 19.9594 8.28193 20.0404 8.10861 20.1521C7.96033 20.2479 7.8355 20.3759 7.74341 20.5266C7.6556 20.6755 7.61047 20.8458 7.61298 21.0187C7.60658 21.1719 7.64594 21.3236 7.72602 21.4542C7.80924 21.5779 7.92112 21.6795 8.05209 21.7504C8.21497 21.8397 8.38894 21.9071 8.56947 21.9507C8.79732 22.008 9.02808 22.0531 9.26074 22.0857L9.80855 22.1597C10.1266 22.2043 10.4407 22.2742 10.7476 22.3688C11.0394 22.4565 11.3153 22.5903 11.565 22.7651C11.8029 22.9328 12.0004 23.1515 12.1432 23.4053C12.2956 23.6932 12.3705 24.0159 12.3606 24.3416C12.3682 24.7148 12.2799 25.0837 12.1041 25.4129C11.935 25.7226 11.6988 25.9905 11.4128 26.1968C11.1063 26.4166 10.7633 26.5803 10.3998 26.6802C10.0023 26.7922 9.59109 26.8479 9.17814 26.8457C8.8985 26.8443 8.6194 26.821 8.34339 26.776C8.04887 26.7315 7.75818 26.6645 7.47386 26.5757C7.20425 26.4856 6.9425 26.3735 6.69128 26.2403C6.44304 26.1133 6.21095 25.9569 6 25.7744L6.69128 24.7509C6.84075 24.8861 7.00565 25.003 7.18256 25.0993C7.58967 25.3226 8.03011 25.4785 8.48686 25.561C8.71771 25.6041 8.95201 25.6259 9.18683 25.6263C9.42944 25.6294 9.6716 25.6046 9.90854 25.5523C10.1152 25.5071 10.3134 25.4292 10.4955 25.3215C10.6529 25.2287 10.788 25.1023 10.8911 24.9513C10.9904 24.8034 11.042 24.6286 11.0389 24.4505C11.0451 24.149 10.8752 23.8717 10.6042 23.7406C10.1765 23.5411 9.71755 23.4174 9.2477 23.3748L8.63033 23.2877C8.33479 23.2466 8.04369 23.1781 7.7608 23.083C7.48912 22.9934 7.23473 22.8579 7.00866 22.6823C6.78501 22.508 6.60244 22.2864 6.4739 22.0334C6.3271 21.7419 6.25254 21.4193 6.25651 21.0928C6.24997 20.7249 6.33515 20.3611 6.50433 20.0345C6.6674 19.7271 6.89777 19.4606 7.17822 19.255C7.47864 19.0366 7.8159 18.8744 8.17383 18.7759C8.56975 18.6633 8.97962 18.6076 9.39117 18.6104C9.92325 18.6035 10.453 18.6814 10.9607 18.8413C11.4215 18.9909 11.8602 19.2018 12.265 19.4684L11.6259 20.5092ZM15.9517 21.1189C16.3088 21.1156 16.6627 21.1868 16.9908 21.3279C17.2993 21.4617 17.5752 21.6607 17.7995 21.9115C18.031 22.1754 18.2096 22.4814 18.3256 22.813C18.4566 23.1864 18.5213 23.58 18.5169 23.9758V24.2022V24.42H14.4822C14.5113 24.6418 14.5821 24.8561 14.6909 25.0514C14.7848 25.2192 14.9103 25.3671 15.0605 25.4869C15.2043 25.5993 15.3681 25.6835 15.5431 25.7352C15.7238 25.7884 15.9112 25.8148 16.0996 25.8136C16.3789 25.8114 16.6556 25.7598 16.9169 25.6611C17.1899 25.5584 17.444 25.4113 17.6691 25.2256L18.256 26.0749C17.9489 26.3448 17.5891 26.548 17.1995 26.6715C16.8174 26.7865 16.4203 26.8437 16.0213 26.8413C15.6378 26.8455 15.257 26.776 14.8996 26.6367C14.573 26.5058 14.2769 26.3086 14.0301 26.0574C13.7788 25.7998 13.5834 25.4929 13.4562 25.156C13.3158 24.7801 13.2465 24.3814 13.2519 23.9801C13.2477 23.5836 13.3154 23.1896 13.4518 22.8173C13.5746 22.481 13.7639 22.1729 14.0083 21.9115C14.2533 21.6571 14.5498 21.4581 14.8779 21.3279C15.2185 21.1874 15.5833 21.1149 15.9517 21.1145V21.1189ZM15.93 22.1772C15.7373 22.1735 15.5456 22.206 15.3648 22.273C15.2022 22.3326 15.054 22.4261 14.93 22.5473C14.8074 22.6736 14.7087 22.8212 14.6388 22.9828C14.5602 23.1544 14.5061 23.3362 14.4779 23.5228H17.2952C17.2615 23.1547 17.1089 22.8076 16.8604 22.5343C16.612 22.2896 16.2737 22.1588 15.9257 22.1728L15.93 22.1772ZM22.2298 21.1189C22.6201 21.1152 23.0073 21.1892 23.3688 21.3367C23.7063 21.4803 24.0044 21.7028 24.2384 21.9855L23.4775 22.7956C23.3026 22.6186 23.0999 22.4715 22.8776 22.3601C22.6562 22.261 22.4157 22.2119 22.1732 22.2164C21.9552 22.2141 21.7391 22.2571 21.5385 22.3427C21.3472 22.4326 21.1769 22.5617 21.0385 22.7215C20.8905 22.8803 20.7753 23.0668 20.6994 23.2703C20.5365 23.7279 20.5365 24.2279 20.6994 24.6856C20.7748 24.8907 20.89 25.0786 21.0385 25.2387C21.1817 25.3916 21.3548 25.5132 21.5472 25.5958C21.7478 25.6814 21.9639 25.7244 22.1819 25.7221C22.438 25.7226 22.6908 25.6645 22.921 25.5523C23.1408 25.4493 23.3432 25.3127 23.521 25.1473L24.2558 25.9878C24.0117 26.2709 23.705 26.4931 23.3602 26.6367C23.0003 26.7846 22.6144 26.8587 22.2254 26.8544C21.8236 26.8602 21.4246 26.7862 21.0515 26.6367C20.3664 26.3622 19.8293 25.81 19.5733 25.1168C19.3008 24.3836 19.3008 23.5767 19.5733 22.8435C19.8294 22.1578 20.3609 21.6111 21.0385 21.3367C21.4154 21.184 21.8189 21.1084 22.2254 21.1145L22.2298 21.1189ZM30.3381 24.3938C30.3482 24.7769 30.274 25.1576 30.1208 25.5087C29.9906 25.8013 29.7976 26.0615 29.5556 26.2708C29.3197 26.4691 29.046 26.6172 28.7512 26.7063C28.1449 26.8923 27.4968 26.8923 26.8904 26.7063C26.5944 26.6171 26.3194 26.469 26.0818 26.2708C25.8382 26.0629 25.6449 25.8023 25.5166 25.5087C25.3662 25.1568 25.2935 24.7765 25.3036 24.3938V21.2583H26.4948V24.3067C26.4888 24.533 26.5226 24.7586 26.5948 24.9731C26.655 25.1377 26.7516 25.2866 26.8774 25.4086C27.0007 25.5246 27.1497 25.6096 27.3122 25.6568C27.6525 25.759 28.0153 25.759 28.3556 25.6568C28.5181 25.6096 28.6671 25.5246 28.7904 25.4086C28.9162 25.2866 29.0128 25.1377 29.073 24.9731C29.1467 24.7589 29.182 24.5333 29.1773 24.3067V21.2583H30.3686L30.3381 24.3938ZM34.6641 21.1189C34.8286 21.1182 34.993 21.1313 35.1553 21.1581C35.304 21.1819 35.4497 21.2213 35.5901 21.2757L35.3075 22.4515C35.17 22.3825 35.0237 22.3327 34.8727 22.3035C34.7198 22.2704 34.564 22.2528 34.4075 22.2512C34.2291 22.249 34.0519 22.2815 33.8858 22.347C33.7299 22.409 33.5901 22.5058 33.4771 22.6301C33.3586 22.7645 33.2684 22.9215 33.2119 23.0917C33.1452 23.2909 33.1128 23.5 33.1163 23.7101V26.702H31.9076V21.2583H33.0815V21.8723C33.2489 21.6221 33.4821 21.4232 33.7554 21.2975C34.0403 21.1724 34.3487 21.11 34.6597 21.1145L34.6641 21.1189ZM38.6422 21.1189C38.9993 21.1156 39.3531 21.1868 39.6813 21.3279C39.9897 21.4617 40.2656 21.6607 40.4899 21.9115C40.7291 22.1736 40.9152 22.4798 41.0377 22.813C41.1686 23.1865 41.2334 23.58 41.229 23.9758V24.2022V24.42H37.1683C37.1974 24.6418 37.2682 24.8561 37.377 25.0514C37.4709 25.2192 37.5964 25.3671 37.7465 25.4869C37.8904 25.5993 38.0541 25.6835 38.2291 25.7352C38.4098 25.7884 38.5973 25.8148 38.7856 25.8136C39.0649 25.8114 39.3416 25.7598 39.603 25.6611C39.8759 25.5584 40.1301 25.4113 40.3551 25.2256L40.9464 26.0705C40.6394 26.3406 40.2796 26.5438 39.8899 26.6671C39.5078 26.7821 39.1107 26.8394 38.7117 26.837C38.3282 26.8411 37.9475 26.7716 37.59 26.6323C37.2634 26.5014 36.9673 26.3042 36.7205 26.0531C36.4692 25.7954 36.2738 25.4885 36.1466 25.1516C36.0062 24.7758 35.9369 24.377 35.9423 23.9758C35.9381 23.5792 36.0059 23.1853 36.1423 22.813C36.2624 22.4773 36.4487 22.1693 36.6901 21.9072C36.935 21.6527 37.2315 21.4538 37.5596 21.3236C37.9019 21.184 38.2682 21.1129 38.6378 21.1145L38.6422 21.1189ZM38.6204 22.1772C38.4277 22.1735 38.236 22.206 38.0552 22.273C37.8926 22.3326 37.7444 22.4261 37.6205 22.5473C37.4978 22.6736 37.3991 22.8212 37.3292 22.9828C37.2507 23.1544 37.1965 23.3362 37.1683 23.5228H39.9943C39.9606 23.1547 39.808 22.8076 39.5595 22.5343C39.3091 22.2873 38.9671 22.1563 38.6161 22.1728L38.6204 22.1772ZM46.3201 18.5843C46.6639 18.5831 47.0066 18.6211 47.3418 18.6975C47.66 18.7699 47.968 18.8811 48.2592 19.0285C48.5376 19.1697 48.7963 19.3469 49.0287 19.5555C49.2554 19.7573 49.4503 19.9922 49.607 20.2523L48.5374 20.9665C48.2988 20.6142 47.978 20.3257 47.6027 20.126C47.2008 19.915 46.7519 19.8101 46.2984 19.8211C45.9145 19.8171 45.5335 19.8881 45.1767 20.0302C44.8497 20.1664 44.5539 20.3679 44.3072 20.6224C44.0522 20.8847 43.8526 21.1958 43.7202 21.537C43.4364 22.2951 43.4364 23.1305 43.7202 23.8887C43.8526 24.2299 44.0522 24.5409 44.3072 24.8032C44.5539 25.0577 44.8497 25.2592 45.1767 25.3955C45.5335 25.5376 45.9145 25.6086 46.2984 25.6045C47.1813 25.6239 48.0141 25.1946 48.5113 24.4635L49.5548 25.23C49.3851 25.479 49.1833 25.7045 48.9548 25.9007C48.7305 26.1043 48.4823 26.2797 48.2157 26.4233C47.9311 26.5663 47.6304 26.6745 47.3201 26.7455C46.4271 26.9434 45.4957 26.8737 44.6419 26.5452C43.6459 26.1548 42.8578 25.3655 42.4681 24.3677C42.0604 23.3082 42.0604 22.1348 42.4681 21.0754C42.8578 20.0776 43.6459 19.2882 44.6419 18.8979C45.1758 18.6856 45.7457 18.5791 46.3201 18.5843ZM53.3198 21.1015C53.7187 21.0969 54.1146 21.1709 54.485 21.3192C54.8299 21.4571 55.1445 21.6612 55.4111 21.9202C55.6737 22.1782 55.8821 22.4862 56.0241 22.8261C56.319 23.555 56.319 24.3704 56.0241 25.0993C55.8821 25.4392 55.6737 25.7472 55.4111 26.0052C55.1445 26.2642 54.8299 26.4683 54.485 26.6062C53.7355 26.8979 52.9042 26.8979 52.1547 26.6062C51.8094 26.4691 51.4946 26.2649 51.2286 26.0052C50.9636 25.7532 50.7508 25.4513 50.6026 25.1168C50.3077 24.3878 50.3077 23.5725 50.6026 22.8435C50.7436 22.5042 50.9505 22.1963 51.2112 21.9376C51.4772 21.6779 51.792 21.4737 52.1373 21.3367C52.5141 21.184 52.9177 21.1084 53.3242 21.1145L53.3198 21.1015ZM53.3198 22.2207C53.0891 22.2183 52.8602 22.2612 52.646 22.347C52.4438 22.4278 52.2603 22.5494 52.1069 22.7041C51.9531 22.8617 51.8319 23.0482 51.7503 23.2528C51.5764 23.7085 51.5764 24.2125 51.7503 24.6682C51.8319 24.8729 51.9531 25.0593 52.1069 25.2169C52.2604 25.3715 52.4439 25.493 52.646 25.574C53.0792 25.744 53.5605 25.744 53.9937 25.574C54.4043 25.4128 54.7311 25.0902 54.898 24.6813C55.072 24.2256 55.072 23.7216 54.898 23.2659C54.8158 23.0606 54.6931 22.8739 54.5372 22.7172C54.3819 22.5627 54.197 22.4413 53.9937 22.3601C53.7809 22.2748 53.5534 22.2319 53.3242 22.2338L53.3198 22.2207ZM59.8109 21.1015C60.4764 21.0757 61.1131 21.3743 61.5195 21.9028V18.5059H62.7064V26.6976H61.5195V26.0444C61.33 26.2869 61.0896 26.4846 60.8152 26.6236C60.5026 26.7755 60.1582 26.8502 59.8109 26.8413C59.0858 26.8483 58.3897 26.5571 57.8849 26.0357C57.6328 25.7711 57.4362 25.4587 57.3067 25.1168C57.0272 24.3758 57.0272 23.5583 57.3067 22.8173C57.4379 22.4802 57.6344 22.1723 57.8849 21.9115C58.3897 21.3901 59.0858 21.0989 59.8109 21.1058V21.1015ZM59.9544 22.2207C59.718 22.217 59.4837 22.2645 59.2674 22.3601C59.0723 22.4478 58.8976 22.5754 58.7544 22.7346C58.6124 22.8963 58.5031 23.0841 58.4327 23.2877C58.2816 23.725 58.2816 24.2004 58.4327 24.6377C58.5031 24.8413 58.6124 25.0291 58.7544 25.1908C58.8976 25.35 59.0723 25.4776 59.2674 25.5653C59.7015 25.7463 60.1898 25.7463 60.6239 25.5653C60.8198 25.4805 60.9959 25.356 61.1413 25.1995C61.2829 25.049 61.3949 24.8732 61.4717 24.6813C61.6306 24.2334 61.6306 23.7443 61.4717 23.2964C61.397 23.0933 61.2833 22.9069 61.1369 22.7477C60.9913 22.5915 60.8152 22.467 60.6196 22.3818C60.4106 22.2865 60.184 22.236 59.9544 22.2338V22.2207ZM66.6498 21.1015C67.0069 21.0981 67.3608 21.1693 67.6889 21.3105C67.9974 21.4441 68.2733 21.6432 68.4975 21.8941C68.729 22.1579 68.9077 22.464 69.0236 22.7956C69.1547 23.169 69.2194 23.5625 69.2149 23.9583V24.1848V24.4026H65.202C65.2304 24.6245 65.3013 24.8389 65.4107 25.034C65.5045 25.2019 65.63 25.3498 65.7802 25.4695C65.924 25.582 66.0878 25.6662 66.2628 25.7178C66.4435 25.7709 66.631 25.7973 66.8193 25.7961C67.0986 25.794 67.3753 25.7424 67.6367 25.6437C67.9096 25.541 68.1637 25.3938 68.3888 25.2082L68.9801 26.0531C68.6729 26.323 68.3132 26.5261 67.9236 26.6497C67.5415 26.7648 67.1444 26.822 66.7454 26.8196C66.3619 26.8237 65.9811 26.7542 65.6237 26.6149C65.2971 26.484 65.001 26.2868 64.7542 26.0357C64.5029 25.778 64.3075 25.4711 64.1803 25.1342C64.0399 24.7583 63.9706 24.3596 63.976 23.9583C63.9718 23.5618 64.0396 23.1678 64.1759 22.7956C64.2988 22.4592 64.4881 22.1512 64.7324 21.8897C64.9774 21.6353 65.2739 21.4363 65.602 21.3062C65.936 21.1764 66.2915 21.1114 66.6498 21.1145V21.1015ZM69.7844 26.6846V26.4233H69.8931V26.3666H69.6105V26.4233H69.7323V26.6976L69.7844 26.6846ZM70.3279 26.6846V26.3536H70.2409L70.1409 26.58L70.0409 26.3536H69.954V26.6846H70.0148V26.4363L70.1062 26.6497H70.167L70.2583 26.4363V26.6846H70.3279ZM66.628 22.1597C66.4353 22.156 66.2436 22.1885 66.0628 22.2556C65.9002 22.3152 65.752 22.4087 65.6281 22.5299C65.5054 22.6562 65.4067 22.8038 65.3368 22.9654C65.2583 23.137 65.2042 23.3188 65.1759 23.5054H67.9932C67.9623 23.1327 67.8095 22.7806 67.5584 22.5038C67.3061 22.2714 66.9702 22.1519 66.628 22.1728V22.1597Z"
              fill="#F79E1B"></path>
        <path d="M15.524 15.4791H14.1936V8.69408L11.7894 14.6647H10.3894L7.99386 8.75941V15.4791H6.65479V7.23517H8.69384L11.0894 13.1274L13.4806 7.23517H15.5196L15.524 15.4791ZM22.5237 15.4791H21.2933V14.8041C21.0968 15.0556 20.8474 15.2608 20.5629 15.4051C20.2392 15.561 19.8829 15.6372 19.5238 15.6272C18.7709 15.6352 18.0477 15.3328 17.5239 14.791C17.2639 14.5202 17.06 14.2005 16.9239 13.8503C16.6338 13.0814 16.6338 12.2328 16.9239 11.4638C17.0601 11.1138 17.264 10.7941 17.5239 10.5232C18.0477 9.98134 18.7709 9.679 19.5238 9.68702C19.8833 9.67748 20.2398 9.75518 20.5629 9.91348C20.8473 10.0598 21.0965 10.2664 21.2933 10.5188V9.83944H22.5237V15.4791ZM19.6673 10.8498C19.422 10.8456 19.1788 10.8946 18.9543 10.9935C18.7525 11.0845 18.5719 11.2165 18.4239 11.3811C18.2764 11.5493 18.1628 11.7445 18.0891 11.9559C17.9321 12.4101 17.9321 12.904 18.0891 13.3582C18.1635 13.5702 18.2787 13.7655 18.4282 13.9331C18.5761 14.0979 18.7568 14.2299 18.9586 14.3207C19.4093 14.5094 19.9166 14.5094 20.3673 14.3207C20.5696 14.2324 20.7516 14.1035 20.902 13.9418C21.0536 13.7759 21.1717 13.5822 21.2498 13.3713C21.4143 12.9064 21.4143 12.399 21.2498 11.9341C21.1717 11.7233 21.0536 11.5295 20.902 11.3637C20.7514 11.2022 20.5694 11.0732 20.3673 10.9848C20.1462 10.8905 19.9075 10.8445 19.6673 10.8498ZM28.1626 11.2505C28.0597 11.1912 27.9538 11.1374 27.8452 11.0893C27.7038 11.0277 27.5586 10.9754 27.4105 10.9325C27.2505 10.8841 27.0879 10.8448 26.9235 10.815C26.7514 10.7832 26.5768 10.7671 26.4018 10.767C26.1269 10.7513 25.8534 10.8164 25.6149 10.9543C25.4418 11.0554 25.3357 11.2414 25.3366 11.442C25.3335 11.5306 25.3594 11.6179 25.4105 11.6903C25.4623 11.7597 25.5292 11.8163 25.6062 11.8558C25.6997 11.9034 25.7991 11.9385 25.9018 11.9603C26.0149 11.9864 26.1366 12.0096 26.267 12.03L26.8496 12.1171C27.3675 12.1708 27.863 12.3567 28.2887 12.6571C28.6461 12.9228 28.8495 13.3482 28.8321 13.7937C28.8347 14.0523 28.775 14.3078 28.6582 14.5384C28.5361 14.7611 28.3652 14.9532 28.1583 15.1002C27.9155 15.2747 27.6429 15.4031 27.3539 15.4791C26.9995 15.5737 26.6338 15.6192 26.267 15.6141C26.1221 15.6141 25.954 15.6054 25.7627 15.588C25.5561 15.5683 25.3512 15.5334 25.1497 15.4834C24.9239 15.4268 24.703 15.3526 24.4888 15.2613C24.2616 15.1644 24.047 15.0401 23.8497 14.8912L24.4193 13.9679C24.5243 14.0493 24.6347 14.1235 24.7497 14.19C24.8786 14.2633 25.0139 14.3246 25.154 14.3729C25.3169 14.4289 25.4841 14.4712 25.654 14.4992C25.8595 14.5327 26.0675 14.5487 26.2757 14.5471C26.6052 14.5658 26.934 14.5014 27.2322 14.3599C27.4279 14.2695 27.5547 14.0749 27.5583 13.859C27.5553 13.6947 27.4661 13.5441 27.3235 13.4627C27.0958 13.3359 26.844 13.2587 26.5844 13.2363L25.9975 13.1579C25.4794 13.1158 24.9844 12.9253 24.5714 12.6092C24.2475 12.3351 24.0665 11.9276 24.0801 11.503C24.0766 11.2411 24.1331 10.9819 24.2454 10.7453C24.353 10.5208 24.5125 10.3252 24.7106 10.1748C24.9301 10.0118 25.1777 9.89079 25.441 9.81767C25.7565 9.72947 26.083 9.68695 26.4105 9.69137C26.8329 9.68896 27.2538 9.74166 27.6626 9.84815C28.0266 9.93866 28.3743 10.0856 28.693 10.2836L28.1626 11.2505ZM33.9972 10.9543H31.8233V13.4105C31.823 13.5766 31.851 13.7415 31.9059 13.8982C31.9459 14.0194 32.0111 14.1308 32.0972 14.2249C32.1754 14.3087 32.2722 14.3729 32.3798 14.4121C32.4927 14.4531 32.6119 14.4737 32.732 14.4731C32.9329 14.4715 33.1318 14.4331 33.3189 14.3599C33.5101 14.2885 33.6936 14.198 33.8667 14.0899L34.3537 15.0741C34.1142 15.2345 33.8575 15.3674 33.5885 15.4704C33.2812 15.5845 32.9554 15.6407 32.6276 15.6359C32.0798 15.6678 31.5428 15.4743 31.1407 15.1002C30.7454 14.6406 30.5512 14.0411 30.6016 13.4366V10.9587H29.4843V9.83944H30.6016V8.13229H31.8364V9.83944H34.0102L33.9972 10.9543ZM37.7796 9.68702C38.1499 9.68234 38.5171 9.75501 38.8578 9.90041C39.178 10.039 39.4643 10.2455 39.6969 10.5057C39.9378 10.7797 40.1238 11.0976 40.2447 11.442C40.3797 11.8296 40.4459 12.2379 40.4404 12.6484V12.8835V13.1056H36.2536C36.2841 13.3352 36.3579 13.5569 36.471 13.7589C36.5698 13.927 36.6997 14.0748 36.8536 14.1944C37.0027 14.3105 37.1723 14.3977 37.3535 14.4513C37.5412 14.5071 37.736 14.535 37.9318 14.5341C38.2287 14.5348 38.5233 14.4817 38.8013 14.3773C39.0827 14.2757 39.3456 14.1285 39.5795 13.9418L40.1926 14.8128C39.8739 15.0924 39.5009 15.303 39.097 15.4312C38.7008 15.5512 38.2891 15.6113 37.8753 15.6097C37.4709 15.6238 37.0678 15.5587 36.6884 15.4181C36.3455 15.2838 36.0345 15.0791 35.7753 14.8171C35.5145 14.5495 35.3117 14.2307 35.1797 13.8808C35.0338 13.4911 34.9615 13.0776 34.9667 12.6614C34.9615 12.2503 35.0308 11.8416 35.171 11.4551C35.2986 11.1058 35.4953 10.7859 35.7493 10.5145C35.9938 10.2542 36.29 10.048 36.6188 9.90912C36.9869 9.75826 37.3819 9.68417 37.7796 9.69137V9.68702ZM37.7579 10.7845C37.5577 10.7808 37.3586 10.8148 37.1709 10.8846C37.0077 10.9493 36.8597 11.0472 36.7362 11.1721C36.6098 11.2981 36.5068 11.4455 36.4318 11.6075C36.3456 11.7882 36.2856 11.9803 36.2536 12.178H39.1752C39.1362 11.7942 38.971 11.4342 38.7057 11.1546C38.4528 10.9078 38.1108 10.7743 37.7579 10.7845ZM44.7141 9.68702C44.8845 9.68594 45.0546 9.69905 45.2228 9.72621C45.3715 9.75211 45.5171 9.79296 45.6576 9.84815L45.3619 11.0675C45.2244 10.9977 45.0782 10.9464 44.9272 10.9151C44.7684 10.8816 44.6068 10.8641 44.4446 10.8629C44.2601 10.8611 44.077 10.8951 43.9055 10.963C43.7395 11.0266 43.5907 11.128 43.4707 11.2592C43.3467 11.3984 43.252 11.5613 43.1924 11.7382C43.1231 11.9443 43.0893 12.1608 43.0925 12.3784V15.4834H41.8621V9.82202H43.0794V10.4578C43.2517 10.2048 43.489 10.0032 43.7663 9.87428C44.0613 9.74713 44.38 9.68476 44.7011 9.69137L44.7141 9.68702ZM48.9183 9.68702C49.3236 9.68287 49.7257 9.75986 50.1009 9.91348C50.4583 10.0602 50.7746 10.2919 51.0226 10.5885L50.2357 11.429C50.0532 11.2512 49.8433 11.1042 49.6139 10.9935C49.3843 10.8904 49.1351 10.8384 48.8835 10.8411C48.6581 10.8389 48.4346 10.8834 48.227 10.9717C48.0264 11.0568 47.8458 11.1829 47.6966 11.3419C47.5444 11.5073 47.4262 11.7012 47.3488 11.9124C47.1793 12.3868 47.1793 12.9055 47.3488 13.38C47.4263 13.5912 47.5445 13.785 47.6966 13.9505C47.8459 14.1094 48.0265 14.2355 48.227 14.3207C48.4346 14.409 48.6581 14.4535 48.8835 14.4513C49.1449 14.4538 49.4035 14.3972 49.64 14.2858C49.8687 14.1741 50.0785 14.0271 50.2617 13.8503L51.0182 14.6996C50.7651 14.9943 50.4464 15.2255 50.0878 15.3746C49.7142 15.5283 49.3135 15.6053 48.9096 15.601C48.4929 15.6069 48.0791 15.5299 47.6923 15.3746C46.9845 15.092 46.4277 14.5248 46.1575 13.8111C45.875 13.0513 45.875 12.2149 46.1575 11.4551C46.4277 10.7415 46.9845 10.1743 47.6923 9.8917C48.0796 9.74582 48.4917 9.67775 48.9053 9.69137L48.9183 9.68702ZM57.5571 15.4791H56.3267V14.8041C56.1302 15.0556 55.8808 15.2608 55.5963 15.4051C55.2726 15.561 54.9163 15.6372 54.5572 15.6272C53.8043 15.6352 53.0811 15.3328 52.5573 14.791C52.2973 14.5202 52.0934 14.2005 51.9573 13.8503C51.6672 13.0814 51.6672 12.2328 51.9573 11.4638C52.0935 11.1138 52.2974 10.7941 52.5573 10.5232C53.0811 9.98134 53.8043 9.679 54.5572 9.68702C54.9167 9.67748 55.2732 9.75518 55.5963 9.91348C55.8807 10.0598 56.13 10.2664 56.3267 10.5188V9.83944H57.5571V15.4791ZM54.705 10.8498C54.4598 10.8456 54.2166 10.8946 53.992 10.9935C53.7903 11.0845 53.6097 11.2165 53.4616 11.3811C53.3142 11.5493 53.2005 11.7445 53.1268 11.9559C52.9698 12.4101 52.9698 12.904 53.1268 13.3582C53.2005 13.5696 53.3142 13.7648 53.4616 13.9331C53.6096 14.0978 53.7902 14.2298 53.992 14.3207C54.4428 14.5089 54.9499 14.5089 55.4007 14.3207C55.6029 14.2323 55.7849 14.1034 55.9354 13.9418C56.0876 13.7763 56.2058 13.5825 56.2832 13.3713C56.4484 12.9065 56.4484 12.3989 56.2832 11.9341C56.2058 11.723 56.0876 11.5291 55.9354 11.3637C55.7848 11.2022 55.6029 11.0732 55.4007 10.9848C55.1822 10.8918 54.9467 10.8458 54.7094 10.8498H54.705ZM62.2221 9.69137C62.3925 9.6903 62.5626 9.70341 62.7308 9.73057C62.8795 9.75647 63.0251 9.79732 63.1656 9.85251L62.8699 11.0719C62.7324 11.002 62.5862 10.9507 62.4352 10.9195C62.2764 10.886 62.1148 10.8685 61.9526 10.8672C61.7681 10.8654 61.585 10.8994 61.4135 10.9674C61.2476 11.0309 61.0987 11.1323 60.9787 11.2635C60.8547 11.4028 60.76 11.5657 60.7005 11.7425C60.6311 11.9487 60.5973 12.1652 60.6005 12.3827V15.4878H59.3701V9.82638H60.6005V10.4622C60.7732 10.2069 61.0122 10.0036 61.2917 9.87428C61.5867 9.74726 61.9054 9.68489 62.2265 9.69137H62.2221ZM66.2568 9.69137C66.6163 9.68184 66.9728 9.75953 67.2959 9.91783C67.5802 10.0643 67.8294 10.2708 68.0263 10.5232V7H69.2567V15.4791H68.0263V14.8041C67.8297 15.0556 67.5804 15.2608 67.2959 15.4051C66.9721 15.561 66.6159 15.6372 66.2568 15.6272C65.5038 15.6352 64.7807 15.3328 64.2568 14.791C63.9923 14.5212 63.7839 14.2015 63.6438 13.8503C63.3537 13.0814 63.3537 12.2328 63.6438 11.4638C63.78 11.1138 63.9839 10.7941 64.2438 10.5232C64.7676 9.98134 65.4908 9.679 66.2437 9.68702L66.2568 9.69137ZM70.6914 14.9608C70.7405 14.9597 70.7893 14.9686 70.8349 14.987C70.8786 15.0053 70.9185 15.0319 70.9522 15.0654C70.9853 15.0977 71.0119 15.1362 71.0305 15.1786C71.0687 15.2676 71.0687 15.3683 71.0305 15.4573C71.0118 15.4997 70.9852 15.5381 70.9522 15.5705C70.9184 15.6038 70.8785 15.6304 70.8349 15.6489C70.7897 15.6691 70.7408 15.6795 70.6914 15.6794C70.545 15.6815 70.4115 15.5958 70.3523 15.4617C70.3141 15.3727 70.3141 15.2719 70.3523 15.183C70.3894 15.0956 70.4598 15.0266 70.5479 14.9913C70.5946 14.9711 70.6449 14.9607 70.6957 14.9608H70.6914ZM70.6914 15.601C70.7287 15.6015 70.7658 15.5941 70.8001 15.5793C70.8326 15.5645 70.8621 15.5438 70.887 15.5183C70.9947 15.4082 70.9947 15.2321 70.887 15.122C70.8622 15.0963 70.8327 15.0756 70.8001 15.061C70.7642 15.0536 70.7272 15.0536 70.6914 15.061C70.6555 15.054 70.6186 15.054 70.5827 15.061C70.5044 15.0991 70.4483 15.1716 70.4313 15.2571C70.4142 15.3426 70.438 15.4312 70.4957 15.4965C70.5206 15.5222 70.5501 15.5428 70.5827 15.5575C70.6171 15.5786 70.6557 15.592 70.6957 15.5967L70.6914 15.601ZM70.6914 15.1655C70.7273 15.1635 70.7627 15.1743 70.7914 15.196C70.8147 15.2152 70.8275 15.2442 70.8261 15.2744C70.8277 15.3003 70.8182 15.3256 70.8001 15.3441C70.7786 15.3642 70.7511 15.3765 70.7218 15.3789L70.8305 15.5052H70.7435L70.6435 15.3789H70.6131V15.5052H70.5436V15.1699L70.6914 15.1655ZM70.6088 15.2265V15.3136H70.6914C70.7056 15.3177 70.7207 15.3177 70.7349 15.3136C70.7403 15.3026 70.7403 15.2897 70.7349 15.2788C70.7411 15.268 70.7411 15.2547 70.7349 15.2439C70.7206 15.24 70.7056 15.24 70.6914 15.2439L70.6088 15.2265ZM66.3828 10.8716C66.1376 10.8674 65.8944 10.9164 65.6698 11.0153C65.4681 11.1062 65.2875 11.2382 65.1394 11.4029C64.992 11.5711 64.8783 11.7663 64.8046 11.9777C64.6476 12.4319 64.6476 12.9258 64.8046 13.38C64.8783 13.5914 64.992 13.7866 65.1394 13.9549C65.2874 14.1196 65.4681 14.2516 65.6698 14.3424C66.1206 14.5307 66.6277 14.5307 67.0785 14.3424C67.2807 14.2541 67.4627 14.1252 67.6132 13.9636C67.7803 13.7906 67.9092 13.5843 67.9915 13.3582C68.1563 12.8934 68.1563 12.3859 67.9915 11.9211C67.914 11.7099 67.7958 11.5161 67.6437 11.3506C67.4931 11.1891 67.3111 11.0602 67.1089 10.9717C66.8868 10.882 66.6482 10.8405 66.4089 10.8498L66.3828 10.8716Z"
              fill="#EB001B"></path>
    </symbol>
    <symbol fill="none" xmlns="http://www.w3.org/2000/svg" viewBox="0 0 69 34" id="visa">
        <path fill-rule="evenodd" clip-rule="evenodd"
              d="M29.1906 17.7686L26.4068 25.268L26.1099 23.7443C25.4167 21.8758 23.9157 19.9156 22.1677 19.1212L24.7144 28.751L27.7249 28.7496L32.2019 17.7686H29.1906Z"
              fill="#1B548E"></path>
        <path fill-rule="evenodd" clip-rule="evenodd"
              d="M31.5769 28.7623L33.3565 17.7583H36.2005L34.4196 28.7623H31.5769Z" fill="#1B548E"></path>
        <path fill-rule="evenodd" clip-rule="evenodd"
              d="M44.7364 18.0294C44.1744 17.8076 43.2877 17.5664 42.1876 17.5664C39.3741 17.5664 37.3976 19.0603 37.3803 21.1972C37.3622 22.7799 38.7937 23.6627 39.8697 24.1885C40.9803 24.7266 41.3512 25.072 41.3477 25.5534C41.3369 26.2906 40.4592 26.6267 39.6435 26.6267C38.5067 26.6267 37.9008 26.4608 36.9688 26.0515L36.5994 25.876L36.2014 28.3387C36.8668 28.6452 38.0952 28.9109 39.372 28.9246C42.3577 28.9246 44.3003 27.4476 44.3234 25.1669C44.3354 23.9115 43.5755 22.9612 41.9331 22.1767C40.9417 21.6666 40.3286 21.3285 40.3376 20.8115C40.3385 20.3549 40.852 19.8656 41.9672 19.8656C42.8987 19.8501 43.5685 20.0635 44.0957 20.2886L44.3494 20.4147L44.7364 18.0294ZM52.0307 17.7696H49.8336C49.1523 17.7696 48.6417 17.9635 48.341 18.6828L44.1191 28.7655H47.1062C47.1062 28.7655 47.5946 27.4085 47.7051 27.111C48.0309 27.111 50.9321 27.1177 51.3463 27.1177C51.4342 27.5014 51.6926 28.7655 51.6926 28.7655H54.3337L52.0307 17.7696ZM48.5234 24.8603C48.7595 24.2288 49.6564 21.7846 49.6564 21.7846C49.6389 21.8144 49.8897 21.1481 50.0346 20.7362L50.224 21.6847C50.224 21.6847 50.7705 24.3106 50.8845 24.8603H48.5234Z"
              fill="#1B548E"></path>
        <path fill-rule="evenodd" clip-rule="evenodd"
              d="M23.8245 17.7632H19.2375L19.2107 17.9527C22.777 18.8639 25.1303 21.1014 26.1099 23.7474L25.113 18.6901C24.9418 17.9944 24.4426 17.7877 23.8245 17.7632Z"
              fill="#E89F3E"></path>
        <path fill-rule="evenodd" clip-rule="evenodd"
              d="M10.6334 15.1042H8.81964L6.72754 5.683L8.73194 5.34814L10.1635 12.7212L13.8095 5.44553H15.7349L10.6334 15.1042Z"
              fill="#1B548E"></path>
        <path fill-rule="evenodd" clip-rule="evenodd"
              d="M20.0652 12.0242H15.7402C15.6221 13.3342 16.2315 13.9058 17.264 13.9058C18.1291 13.9058 18.8901 13.585 19.709 13.0694L19.7026 14.3794C18.8994 14.8812 17.9712 15.2018 16.8829 15.2018C14.9996 15.2018 13.7558 14.1286 14.1296 11.7033C14.4665 9.51539 15.9819 8.19166 17.7398 8.19166C19.7628 8.19166 20.4355 9.7107 20.1415 11.6201C20.1202 11.7594 20.0801 11.9266 20.0652 12.0242ZM17.52 9.34839C16.8502 9.34839 16.2244 9.8777 15.9293 10.979H18.6078C18.6572 9.93347 18.329 9.34839 17.52 9.34839ZM22.8843 11.202L22.2896 15.0625H20.6156L21.6525 8.33063H23.0757L23.0766 9.68268C23.6433 8.90228 24.414 8.24742 25.4687 8.19166L25.4784 9.84997C24.4213 9.91974 23.4703 10.4771 22.8843 11.202ZM25.4564 15.0625L26.4937 8.33063H28.1677L27.1308 15.0625H25.4564ZM27.5186 7.20193C26.9607 7.20193 26.5743 6.81158 26.6602 6.25424C26.7482 5.68288 27.257 5.27853 27.8149 5.27853C28.3591 5.27853 28.7431 5.68288 28.6552 6.25424C28.5692 6.81158 28.0628 7.20193 27.5186 7.20193ZM32.8043 6.49102C32.2321 6.49102 31.8866 6.74181 31.7943 7.34148L31.6417 8.33063H32.9253L32.9241 9.6964H31.4313L30.6045 15.0625H28.9445L29.7713 9.6964H28.7946L29.005 8.33063H29.9814L30.1597 7.1739C30.3894 5.68288 31.424 5.12525 32.8052 5.12525C33.0983 5.12525 33.3172 5.15328 33.4806 5.18101L33.4931 6.54678C33.3298 6.51905 33.0831 6.49102 32.8043 6.49102ZM32.8224 15.0625L33.8596 8.33063H35.5336L34.4967 15.0625H32.8224ZM34.8845 7.20193C34.3266 7.20193 33.9403 6.81158 34.0262 6.25424C34.1142 5.68288 34.623 5.27853 35.1809 5.27853C35.7251 5.27853 36.1094 5.68288 36.0214 6.25424C35.9355 6.81158 35.4287 7.20193 34.8845 7.20193ZM42.0246 12.0242H37.6995C37.5815 13.3342 38.1908 13.9058 39.2233 13.9058C40.0884 13.9058 40.8492 13.585 41.6683 13.0694L41.6616 14.3794C40.8588 14.8812 39.9303 15.2018 38.842 15.2018C36.9587 15.2018 35.7151 14.1286 36.0886 11.7033C36.4259 9.51539 37.9412 8.19166 39.6991 8.19166C41.7221 8.19166 42.3949 9.7107 42.1009 11.6201C42.0792 11.7594 42.0395 11.9266 42.0246 12.0242ZM39.4791 9.34839C38.8092 9.34839 38.1835 9.8777 37.8886 10.979H40.5671C40.6165 9.93347 40.288 9.34839 39.4791 9.34839ZM46.9836 15.0625L46.9877 14.1286C46.4251 14.7002 45.6924 15.2018 44.7575 15.2018C43.3482 15.2018 42.3797 14.1566 42.7295 11.8846C43.1159 9.37612 44.6689 8.26114 46.2313 8.26114C46.8734 8.26114 47.3726 8.37267 47.7554 8.51193L48.2557 5.26451L49.9707 5L48.4206 15.0625H46.9836ZM47.5429 9.89172C47.1545 9.6964 46.8485 9.59889 46.2766 9.59889C45.3975 9.59889 44.6464 10.3098 44.4187 11.7874C44.2171 13.0971 44.6806 13.7105 45.42 13.7105C46.0337 13.7105 46.5639 13.3485 47.0961 12.7908L47.5429 9.89172ZM53.549 15.1259C52.7564 15.1259 52.1106 14.9989 51.5091 14.7881L52.6103 7.64103L53.9091 7.44017L53.4327 10.5334C53.8124 10.1956 54.3399 9.85785 54.9846 9.85785C56.0624 9.85785 56.7843 10.6604 56.5207 12.3704C56.2313 14.2494 55.0711 15.1259 53.549 15.1259ZM54.4845 10.9766C54.0617 10.9766 53.6373 11.2619 53.2618 11.6423L52.9055 13.954C53.1554 14.0489 53.3284 14.0912 53.6876 14.0912C54.4907 14.0912 55.0518 13.6057 55.2307 12.4443C55.3821 11.4624 55.0553 10.9766 54.4845 10.9766ZM59.5084 15.337C58.8605 16.5933 58.2193 16.9839 57.2364 16.9839C57.0143 16.9839 56.891 16.9626 56.7796 16.9311L56.7714 15.8859C56.9342 15.9282 57.1087 15.9597 57.3518 15.9597C57.7218 15.9597 58.0436 15.791 58.2593 15.4214L58.4273 15.0836L57.3521 10.0584L58.6994 9.88967L59.3234 13.521L61.0129 9.96354H62.2705L59.5084 15.337Z"
              fill="#1B548E"></path>
    </symbol>


</svg>
